<svg width="96" height="117" viewBox="0 0 96 117" fill="none" xmlns="http://www.w3.org/2000/svg">
<path d="M46.0346 31.4239C44.5006 23.9249 47.1066 17.7649 50.6936 11.8629C51.6486 10.2919 52.9486 9.03389 54.6846 8.31689C55.3756 8.03189 56.0816 7.61589 57.2356 8.33189C51.7316 15.4549 48.3906 23.4439 48.1056 32.8789C48.3126 33.1219 49.0026 33.5579 49.8056 33.8459C50.3966 33.3249 50.1636 32.6259 50.2476 32.0179C51.7826 20.9129 55.5886 11.0209 65.0206 4.08789C67.5176 2.25189 70.2646 1.08689 73.3296 0.615886C78.1806 -0.130114 82.2106 1.33789 85.5766 4.89389C88.7546 8.25189 90.9436 12.1159 92.1186 16.5899C95.6856 30.1659 96.4896 43.9639 95.4606 57.9029C94.5316 70.4939 92.2236 82.8409 89.0826 95.0699C87.8666 99.8049 87.3126 104.694 85.3076 109.239C83.4146 113.53 81.3586 114.129 76.8406 112.915C70.3876 111.181 65.4726 106.996 60.1696 103.445C46.6246 94.3729 33.7096 84.4739 22.5896 72.4729C17.0636 66.5089 11.9196 60.1839 7.74856 53.1499C5.12256 48.7219 3.72356 43.9899 4.01056 38.7599C4.54756 28.9759 14.6196 19.1879 26.2296 22.9999C32.5736 25.0829 38.7136 27.5489 44.5886 30.6989C44.9776 30.9069 45.3766 31.0949 46.0346 31.4239ZM92.2646 45.4029C92.1556 36.4529 91.1686 27.6229 89.0416 18.9259C88.0616 14.9179 86.5006 11.2269 83.6756 8.12588C79.8596 3.93788 76.2466 3.07488 70.9716 5.20788C69.6476 5.74288 68.4186 6.44889 67.2816 7.31189C58.0046 14.3479 54.6976 24.2659 53.7716 35.3279C53.6786 36.4419 54.0296 37.2789 55.1166 37.8549C55.7706 38.2019 56.3526 38.8579 56.1006 39.7769C55.8616 40.6489 55.1206 40.8939 54.3536 41.1119C53.3756 41.3899 52.5786 41.0959 51.8806 40.4179C51.3726 39.9249 50.9266 39.3409 50.3506 38.9459C42.1446 33.3139 33.3326 28.9599 23.6686 26.4419C22.2956 26.0839 20.8866 25.9269 19.4466 26.1149C13.2516 26.9229 8.02156 32.9449 7.69756 39.6539C7.46856 44.3809 9.13456 48.5529 11.6416 52.3899C17.2046 60.9049 23.5676 68.8089 31.0766 75.6699C41.4646 85.1609 52.2296 94.1759 64.4376 101.364C68.5436 103.781 72.5696 106.329 76.8086 108.517C80.2936 110.316 80.6696 110.052 82.2006 106.557C83.5156 103.555 83.3956 100.301 84.2746 97.2749C89.2046 80.3219 92.0636 63.0709 92.2646 45.4029Z" fill="#0C0C0C"/>
<path d="M2.88613 46.9102C3.72613 47.0042 4.07113 47.5772 3.76113 48.2622C2.27413 51.5552 3.32113 54.6832 4.62913 57.5992C10.8411 71.4512 19.5471 83.2092 33.1201 90.7802C44.5611 97.1622 55.9851 103.573 67.3841 110.027C69.5681 111.263 71.6031 112.762 73.7091 114.137C74.4031 114.59 75.3901 115.022 74.8251 116.026C74.2891 116.977 73.3771 116.465 72.5841 116.16C65.5141 113.436 58.9141 109.76 52.3241 106.079C43.4811 101.139 34.4621 96.4872 26.0421 90.8282C14.0311 82.7542 6.20913 71.4502 1.25213 58.0342C0.216133 55.2302 -0.321867 52.2982 0.592133 49.3012C0.953133 48.1172 1.59613 47.2152 2.88613 46.9102Z" fill="#0C0C0C"/>
</svg>
