<svg width="375" height="474" viewBox="0 0 375 474" fill="none" xmlns="http://www.w3.org/2000/svg">
<g clip-path="url(#clip0_1434_114626)">
<path fill-rule="evenodd" clip-rule="evenodd" d="M175 257.833L187.5 245.583C185.875 245.417 184.667 245.333 183.333 245.333C172.208 245.333 150 250.917 150 262V270.333H187.5L175 257.833ZM183.333 237C192.542 237 200 229.542 200 220.333C200 211.125 192.542 203.667 183.333 203.667C174.125 203.667 166.667 211.125 166.667 220.333C166.667 229.542 174.125 237 183.333 237Z" fill="#212121"/>
<path fill-rule="evenodd" clip-rule="evenodd" d="M201.958 272.416L187.5 257.833L193.333 251.958L201.958 260.625L223.333 239.083L229.167 244.958L201.958 272.416Z" fill="#212121"/>
</g>
<path fill-rule="evenodd" clip-rule="evenodd" d="M249.604 181.872C247.992 180.547 246.726 179.436 245.376 178.407C241.014 175.08 236.306 172.165 231.344 169.575C226.394 166.992 221.434 164.434 216.114 162.487C200.743 156.862 185.078 154.495 169.089 155.406C160.494 155.896 152.706 158.143 145.407 161.467C141.291 163.34 137.445 165.536 133.849 168.021C133.192 168.474 132.527 168.681 131.633 168.693C124.136 168.8 117.563 170.824 111.73 174.329C111.127 174.691 110.572 175.117 110.062 175.566C108.226 177.19 108.201 177.828 109.805 179.79C108.569 180.733 107.284 181.629 106.12 182.63C105.437 183.218 104.863 183.927 104.387 184.658C103.323 186.302 104.263 187.642 106.619 187.928C106.865 187.958 107.114 187.948 107.737 187.968C107.178 188.648 106.75 189.117 106.386 189.623C105.092 191.415 103.748 193.182 102.576 195.038C102.093 195.803 101.821 196.745 101.762 197.646C101.64 199.552 103.525 200.818 105.518 200.091C107.159 199.49 108.618 198.571 110.1 197.724C111.012 197.202 111.814 196.552 112.802 195.864C112.831 198.139 111.581 200.232 113.262 202.514C115.553 201.98 115.435 200.094 116.485 198.659C116.574 199.292 116.663 199.697 116.681 200.099C116.736 201.364 116.723 202.628 116.819 203.894C116.885 204.772 117.026 205.662 117.249 206.533C117.503 207.52 118.127 208.339 119.387 208.614C120.685 208.897 121.537 208.361 121.982 207.473C122.741 205.967 123.384 204.41 124.05 202.864C124.261 202.37 124.39 201.842 124.552 201.348C124.776 201.373 124.926 201.351 125.022 201.405C127.516 202.803 128.606 202.684 129.746 200.586C130.549 199.106 131.05 197.487 131.654 195.919C131.847 195.417 131.941 194.88 132.076 194.374C132.272 194.389 132.419 194.362 132.515 194.414C135.123 195.834 136.351 195.616 137.494 193.389C138.586 191.264 138.785 188.918 138.772 186.547C138.747 182.083 138.082 177.623 137.013 173.17C136.922 172.79 136.848 172.408 136.726 171.829C139.115 170.434 141.498 168.944 144.001 167.602C148.838 165.012 154.026 162.956 159.604 161.55C166.873 159.717 174.492 159.441 182.25 159.81C193.458 160.342 204.363 162.647 214.99 166.52C220.614 168.57 225.876 171.285 231.052 174.118C234.117 175.794 237.032 177.691 240.002 179.505C240.416 179.757 240.755 180.101 241.458 180.669C240.2 180.372 239.404 180.12 238.594 180.004C236.43 179.697 235.001 180.917 235.722 182.701C236.338 184.226 237.248 185.753 238.364 187.09C240.712 189.906 243.268 192.607 245.762 195.339C249.432 199.357 252.779 203.535 255.552 208.007C256.201 209.051 256.829 210.108 257.573 211.108C258.375 212.185 259.573 212.361 260.44 211.451C261.083 210.778 261.664 209.94 261.84 209.077C262.242 207.118 262.53 205.114 262.599 203.1C262.859 195.408 262.193 187.705 259.829 180.022C259.041 177.465 258.189 174.917 256.591 172.543C255.631 171.116 254.251 170.164 252.517 169.574C250.682 168.949 249.219 169.305 248.542 170.734C248.138 171.586 247.921 172.614 248.041 173.559C248.315 175.704 248.854 177.848 249.278 179.991C249.38 180.512 249.459 181.033 249.604 181.872ZM258.558 204.396C258.386 204.424 258.215 204.451 258.046 204.479C255.685 200.805 252.87 197.373 249.818 194.068C247.266 191.305 244.676 188.567 242.118 185.806C241.683 185.338 241.331 184.818 240.942 184.322C241.047 184.232 241.15 184.139 241.254 184.048C242.734 184.908 244.28 185.69 245.673 186.647C247.089 187.62 248.347 188.769 249.686 189.828C250.336 190.344 251.122 190.996 251.928 190.618C252.913 190.156 254.079 189.677 254.114 188.457C254.155 187.038 254.334 185.613 254.135 184.196C253.755 181.5 253.143 178.811 252.641 176.119C252.484 175.278 252.367 174.436 252.233 173.595C253.773 174.772 254.379 176.179 254.905 177.616C257.069 183.531 258.085 189.518 258.388 195.537C258.533 198.494 258.505 201.443 258.558 204.396ZM127.132 198.066C127.02 197.791 126.894 197.594 126.869 197.398C126.189 191.879 126.261 186.43 127.193 181.069C127.394 179.909 128.327 179.206 129.356 178.488C131.152 182.648 129.812 194.328 127.132 198.066ZM117.878 184.151C116.057 188.816 109.485 195.376 105.68 196.379C108.434 191.189 112.565 187.246 117.878 184.151ZM120.329 202.333C120.252 202.148 120.13 201.994 120.132 201.851C120.208 198.028 120.267 194.202 120.395 190.385C120.429 189.37 122.003 187.227 122.948 186.615C123.505 190.921 122.017 199.923 120.329 202.333ZM134.007 174.319C135.52 178.613 135.834 188.329 134.364 190.766C134.196 189.175 134.036 187.865 133.924 186.556C133.631 183.14 133.348 179.724 133.083 176.308C133.022 175.52 132.723 174.596 134.007 174.319ZM128.898 171.624C127.039 173.313 116.272 176.886 113.853 176.649C118.297 173.914 123.171 172.233 128.898 171.624ZM108.886 184.494C110.779 181.892 117.833 178.548 122.368 178.093C118.181 180.477 113.933 182.776 108.886 184.494Z" fill="#0C0C0C" fill-opacity="0.2"/>
<path fill-rule="evenodd" clip-rule="evenodd" d="M112.144 309.712C113.873 311.07 115.233 312.209 116.681 313.265C121.358 316.68 126.393 319.688 131.694 322.373C136.981 325.051 142.278 327.704 147.946 329.749C164.323 335.658 180.957 338.298 197.879 337.65C206.975 337.301 215.187 335.173 222.863 331.955C227.191 330.142 231.228 328 234.995 325.564C235.684 325.12 236.384 324.923 237.331 324.925C245.271 324.943 252.2 323.02 258.319 319.595C258.952 319.242 259.532 318.823 260.065 318.38C261.983 316.779 261.998 316.139 260.266 314.14C261.56 313.214 262.906 312.335 264.122 311.349C264.836 310.768 265.432 310.067 265.923 309.34C267.023 307.705 266.004 306.343 263.504 306.016C263.243 305.982 262.979 305.989 262.319 305.958C262.9 305.284 263.345 304.82 263.722 304.318C265.063 302.539 266.456 300.786 267.667 298.941C268.165 298.18 268.438 297.238 268.485 296.334C268.582 294.42 266.563 293.117 264.465 293.815C262.737 294.391 261.207 295.29 259.651 296.116C258.694 296.625 257.856 297.265 256.821 297.939C256.752 295.653 258.041 293.571 256.221 291.25C253.804 291.749 253.96 293.646 252.872 295.07C252.767 294.432 252.666 294.024 252.64 293.62C252.56 292.348 252.553 291.079 252.429 289.804C252.345 288.921 252.181 288.025 251.93 287.145C251.644 286.15 250.969 285.317 249.63 285.02C248.25 284.713 247.357 285.237 246.901 286.122C246.121 287.623 245.467 289.177 244.788 290.718C244.572 291.212 244.445 291.74 244.281 292.233C244.044 292.205 243.885 292.224 243.782 292.169C241.117 290.722 239.965 290.823 238.792 292.912C237.966 294.386 237.463 296.004 236.849 297.57C236.654 298.071 236.564 298.608 236.429 299.115C236.221 299.096 236.065 299.121 235.963 299.067C233.177 297.597 231.88 297.796 230.706 300.014C229.585 302.131 229.414 304.485 229.468 306.868C229.57 311.353 230.349 315.845 231.557 320.337C231.66 320.72 231.744 321.106 231.883 321.69C229.376 323.051 226.877 324.508 224.249 325.814C219.168 328.336 213.707 330.315 207.823 331.635C200.154 333.356 192.087 333.505 183.863 333.005C171.981 332.283 160.391 329.785 149.068 325.716C143.077 323.562 137.457 320.747 131.926 317.814C128.652 316.078 125.532 314.123 122.355 312.251C121.911 311.991 121.547 311.64 120.792 311.057C122.13 311.376 122.978 311.644 123.838 311.773C126.135 312.118 127.628 310.916 126.834 309.111C126.156 307.568 125.167 306.02 123.962 304.657C121.427 301.789 118.674 299.032 115.986 296.245C112.031 292.147 108.414 287.893 105.402 283.354C104.697 282.294 104.014 281.221 103.209 280.205C102.341 279.109 101.069 278.912 100.166 279.812C99.4967 280.477 98.8951 281.31 98.7232 282.174C98.3299 284.135 98.0589 286.144 98.0203 288.166C97.8739 295.89 98.7096 303.642 101.344 311.4C102.221 313.983 103.167 316.557 104.899 318.97C105.941 320.419 107.419 321.398 109.265 322.02C111.22 322.679 112.764 322.346 113.456 320.921C113.87 320.072 114.082 319.043 113.939 318.091C113.613 315.931 113.006 313.768 112.521 311.608C112.403 311.083 112.312 310.558 112.144 309.712ZM102.279 286.931C102.46 286.906 102.641 286.882 102.82 286.857C105.382 290.587 108.422 294.083 111.711 297.455C114.461 300.273 117.251 303.068 120.007 305.884C120.475 306.362 120.857 306.89 121.278 307.396C121.168 307.484 121.061 307.575 120.952 307.665C119.37 306.777 117.718 305.965 116.227 304.98C114.71 303.979 113.358 302.804 111.923 301.717C111.225 301.188 110.382 300.519 109.534 300.886C108.499 301.334 107.271 301.795 107.254 303.021C107.235 304.446 107.07 305.875 107.305 307.302C107.753 310.017 108.446 312.729 109.023 315.442C109.204 316.29 109.342 317.138 109.498 317.985C107.847 316.777 107.181 315.352 106.599 313.9C104.208 307.921 103.031 301.888 102.609 295.835C102.404 292.862 102.384 289.9 102.279 286.931ZM241.603 295.488C241.726 295.767 241.864 295.966 241.893 296.164C242.707 301.72 242.723 307.194 241.826 312.565C241.633 313.727 240.656 314.417 239.578 315.122C237.605 310.912 238.827 299.198 241.603 295.488ZM251.641 309.623C253.491 304.967 260.343 298.486 264.356 297.541C261.526 302.71 257.217 306.602 251.641 309.623ZM248.739 291.314C248.823 291.501 248.954 291.658 248.955 291.802C248.939 295.642 248.941 299.485 248.87 303.318C248.851 304.337 247.219 306.465 246.229 307.064C245.566 302.728 246.99 293.707 248.739 291.314ZM234.722 319.233C233.046 314.893 232.55 305.126 234.067 302.701C234.271 304.303 234.463 305.622 234.603 306.939C234.971 310.376 235.329 313.813 235.667 317.25C235.745 318.043 236.077 318.976 234.722 319.233ZM240.179 322.026C242.12 320.361 253.465 316.95 256.032 317.228C251.37 319.903 246.236 321.51 240.179 322.026ZM261.161 309.43C259.2 312.012 251.783 315.254 246.987 315.636C251.382 313.31 255.844 311.071 261.161 309.43Z" fill="#0C0C0C" fill-opacity="0.2"/>
<defs>
<clipPath id="clip0_1434_114626">
<rect width="100" height="100" fill="white" transform="translate(137.5 187)"/>
</clipPath>
</defs>
</svg>
