<svg width="37" height="30" viewBox="0 0 37 30" fill="none" xmlns="http://www.w3.org/2000/svg">
<path fill-rule="evenodd" clip-rule="evenodd" d="M2.86295 12.9117C12.6227 8.6425 19.1466 5.88315 22.3824 4.5295C31.6724 0.676823 33.6035 0 34.8561 0C35.117 0 35.7433 0.0520636 36.1609 0.364443C36.474 0.62476 36.5784 0.989201 36.6306 1.24952C36.6828 1.50983 36.735 2.08253 36.6828 2.5511C36.1609 7.80949 34.021 20.6691 32.8728 26.5523C32.4031 29.0513 31.4637 29.8843 30.5764 29.9884C28.6453 30.1446 27.1318 28.6869 25.2529 27.4894C22.3302 25.5631 20.6601 24.3656 17.7896 22.4913C14.5016 20.3047 16.6414 19.1072 18.5203 17.1809C18.99 16.6602 27.6015 8.90282 27.7581 8.17393C27.7581 8.06981 27.8103 7.75743 27.6015 7.60124C27.3928 7.44505 27.1318 7.49711 26.923 7.54917C26.6099 7.60124 21.9127 10.725 12.7793 16.8685C11.4223 17.8056 10.2219 18.2221 9.12588 18.2221C7.92549 18.2221 5.62908 17.5453 3.90677 16.9726C1.81913 16.2958 0.149016 15.9314 0.305589 14.786C0.462163 14.1612 1.29722 13.5364 2.86295 12.9117Z" fill="white"/>
</svg>
