<svg width="375" height="474" viewBox="0 0 375 474" fill="none" xmlns="http://www.w3.org/2000/svg">
<g clip-path="url(#clip0_1434_114522)">
<path d="M187.5 191.167L150 207.833V232.833C150 255.958 166 277.583 187.5 282.833C209 277.583 225 255.958 225 232.833V207.833L187.5 191.167ZM179.167 257.833L162.5 241.167L168.375 235.292L179.167 246.042L206.625 218.583L212.5 224.5L179.167 257.833Z" fill="#212121"/>
</g>
<path fill-rule="evenodd" clip-rule="evenodd" d="M256.604 171.872C254.992 170.547 253.726 169.436 252.376 168.407C248.014 165.08 243.306 162.165 238.344 159.575C233.394 156.992 228.434 154.434 223.114 152.487C207.743 146.862 192.078 144.495 176.089 145.406C167.494 145.896 159.706 148.143 152.407 151.467C148.291 153.34 144.445 155.536 140.849 158.021C140.192 158.474 139.527 158.681 138.633 158.693C131.136 158.8 124.563 160.824 118.73 164.329C118.127 164.691 117.572 165.117 117.062 165.566C115.226 167.19 115.201 167.828 116.805 169.79C115.569 170.733 114.284 171.629 113.12 172.63C112.437 173.218 111.863 173.927 111.387 174.658C110.323 176.302 111.263 177.642 113.619 177.928C113.865 177.958 114.114 177.948 114.737 177.968C114.178 178.648 113.75 179.117 113.386 179.623C112.092 181.415 110.748 183.182 109.576 185.038C109.093 185.803 108.821 186.745 108.762 187.646C108.64 189.552 110.525 190.818 112.518 190.091C114.159 189.49 115.618 188.571 117.1 187.724C118.012 187.202 118.814 186.552 119.802 185.864C119.831 188.139 118.581 190.232 120.262 192.514C122.553 191.98 122.435 190.094 123.485 188.659C123.574 189.292 123.663 189.697 123.681 190.099C123.736 191.364 123.723 192.628 123.819 193.894C123.885 194.772 124.026 195.662 124.249 196.533C124.503 197.52 125.127 198.339 126.387 198.614C127.685 198.897 128.537 198.361 128.982 197.473C129.741 195.967 130.384 194.41 131.05 192.864C131.261 192.37 131.39 191.842 131.552 191.348C131.776 191.373 131.926 191.351 132.022 191.405C134.516 192.803 135.606 192.684 136.746 190.586C137.549 189.106 138.05 187.487 138.654 185.919C138.847 185.417 138.941 184.88 139.076 184.374C139.272 184.389 139.419 184.362 139.515 184.414C142.123 185.834 143.351 185.616 144.494 183.389C145.586 181.264 145.785 178.918 145.772 176.547C145.747 172.083 145.082 167.623 144.013 163.17C143.922 162.79 143.848 162.408 143.726 161.829C146.115 160.434 148.498 158.944 151.001 157.602C155.838 155.012 161.026 152.956 166.604 151.55C173.873 149.717 181.492 149.441 189.25 149.81C200.458 150.342 211.363 152.647 221.99 156.52C227.614 158.57 232.876 161.285 238.052 164.118C241.117 165.794 244.032 167.691 247.002 169.505C247.416 169.757 247.755 170.101 248.458 170.669C247.2 170.372 246.404 170.12 245.594 170.004C243.43 169.697 242.001 170.917 242.722 172.701C243.338 174.226 244.248 175.753 245.364 177.09C247.712 179.906 250.268 182.607 252.762 185.339C256.432 189.357 259.779 193.535 262.552 198.007C263.201 199.051 263.829 200.108 264.573 201.108C265.375 202.185 266.573 202.361 267.44 201.451C268.083 200.778 268.664 199.94 268.84 199.077C269.242 197.118 269.53 195.114 269.599 193.1C269.859 185.408 269.193 177.705 266.829 170.022C266.041 167.465 265.189 164.917 263.591 162.543C262.631 161.116 261.251 160.164 259.517 159.574C257.682 158.949 256.219 159.305 255.542 160.734C255.138 161.586 254.921 162.614 255.041 163.559C255.315 165.704 255.854 167.848 256.278 169.991C256.38 170.512 256.459 171.033 256.604 171.872ZM265.558 194.396C265.386 194.424 265.215 194.451 265.046 194.479C262.685 190.805 259.87 187.373 256.818 184.068C254.266 181.305 251.676 178.567 249.118 175.806C248.683 175.338 248.331 174.818 247.942 174.322C248.047 174.232 248.15 174.139 248.254 174.048C249.734 174.908 251.28 175.69 252.673 176.647C254.089 177.62 255.347 178.769 256.686 179.828C257.336 180.344 258.122 180.996 258.928 180.618C259.913 180.156 261.079 179.677 261.114 178.457C261.155 177.038 261.334 175.613 261.135 174.196C260.755 171.5 260.143 168.811 259.641 166.119C259.484 165.278 259.367 164.436 259.233 163.595C260.773 164.772 261.379 166.179 261.905 167.616C264.069 173.531 265.085 179.518 265.388 185.537C265.533 188.494 265.505 191.443 265.558 194.396ZM134.132 188.066C134.02 187.791 133.894 187.594 133.869 187.398C133.189 181.879 133.261 176.43 134.193 171.069C134.394 169.909 135.327 169.206 136.356 168.488C138.152 172.648 136.812 184.328 134.132 188.066ZM124.878 174.151C123.057 178.816 116.485 185.376 112.68 186.379C115.434 181.189 119.565 177.246 124.878 174.151ZM127.329 192.333C127.252 192.148 127.13 191.994 127.132 191.851C127.208 188.028 127.267 184.202 127.395 180.385C127.429 179.37 129.003 177.227 129.948 176.615C130.505 180.921 129.017 189.923 127.329 192.333ZM141.007 164.319C142.52 168.613 142.834 178.329 141.364 180.766C141.196 179.175 141.036 177.865 140.924 176.556C140.631 173.14 140.348 169.724 140.083 166.308C140.022 165.52 139.723 164.596 141.007 164.319ZM135.898 161.624C134.039 163.313 123.272 166.886 120.853 166.649C125.297 163.914 130.171 162.233 135.898 161.624ZM115.886 174.494C117.779 171.892 124.833 168.548 129.368 168.093C125.181 170.477 120.933 172.776 115.886 174.494Z" fill="#0C0C0C" fill-opacity="0.2"/>
<path fill-rule="evenodd" clip-rule="evenodd" d="M119.144 299.712C120.873 301.07 122.233 302.209 123.681 303.265C128.358 306.68 133.393 309.688 138.694 312.373C143.981 315.051 149.278 317.704 154.946 319.749C171.323 325.658 187.957 328.298 204.879 327.65C213.975 327.301 222.187 325.173 229.863 321.955C234.191 320.142 238.228 318 241.995 315.564C242.684 315.12 243.384 314.923 244.331 314.925C252.271 314.943 259.2 313.02 265.319 309.595C265.952 309.242 266.532 308.823 267.065 308.38C268.983 306.779 268.998 306.139 267.266 304.14C268.56 303.214 269.906 302.335 271.122 301.349C271.836 300.768 272.432 300.067 272.923 299.34C274.023 297.705 273.004 296.343 270.504 296.016C270.243 295.982 269.979 295.989 269.319 295.958C269.9 295.284 270.345 294.82 270.722 294.318C272.063 292.539 273.456 290.786 274.667 288.941C275.165 288.18 275.438 287.238 275.485 286.334C275.582 284.42 273.563 283.117 271.465 283.815C269.737 284.391 268.207 285.29 266.651 286.116C265.694 286.625 264.856 287.265 263.821 287.939C263.752 285.653 265.041 283.571 263.221 281.25C260.804 281.749 260.96 283.646 259.872 285.07C259.767 284.432 259.666 284.024 259.64 283.62C259.56 282.348 259.553 281.079 259.429 279.804C259.345 278.921 259.181 278.025 258.93 277.145C258.644 276.15 257.969 275.317 256.63 275.02C255.25 274.713 254.357 275.237 253.901 276.122C253.121 277.623 252.467 279.177 251.788 280.718C251.572 281.212 251.445 281.74 251.281 282.233C251.044 282.205 250.885 282.224 250.782 282.169C248.117 280.722 246.965 280.823 245.792 282.912C244.966 284.386 244.463 286.004 243.849 287.57C243.654 288.071 243.564 288.608 243.429 289.115C243.221 289.096 243.065 289.121 242.963 289.067C240.177 287.597 238.88 287.796 237.706 290.014C236.585 292.131 236.414 294.485 236.468 296.868C236.57 301.353 237.349 305.845 238.557 310.337C238.66 310.72 238.744 311.106 238.883 311.69C236.376 313.051 233.877 314.508 231.249 315.814C226.168 318.336 220.707 320.315 214.823 321.635C207.154 323.356 199.087 323.505 190.863 323.005C178.981 322.283 167.391 319.785 156.068 315.716C150.077 313.562 144.457 310.747 138.926 307.814C135.652 306.078 132.532 304.123 129.355 302.251C128.911 301.991 128.547 301.64 127.792 301.057C129.13 301.376 129.978 301.644 130.838 301.773C133.135 302.118 134.628 300.916 133.834 299.111C133.156 297.568 132.167 296.02 130.962 294.657C128.427 291.789 125.674 289.032 122.986 286.245C119.031 282.147 115.414 277.893 112.402 273.354C111.697 272.294 111.014 271.221 110.209 270.205C109.341 269.109 108.069 268.912 107.166 269.812C106.497 270.477 105.895 271.31 105.723 272.174C105.33 274.135 105.059 276.144 105.02 278.166C104.874 285.89 105.71 293.642 108.344 301.4C109.221 303.983 110.167 306.557 111.899 308.97C112.941 310.419 114.419 311.398 116.265 312.02C118.22 312.679 119.764 312.346 120.456 310.921C120.87 310.072 121.082 309.043 120.939 308.091C120.613 305.931 120.006 303.768 119.521 301.608C119.403 301.083 119.312 300.558 119.144 299.712ZM109.279 276.931C109.46 276.906 109.641 276.882 109.82 276.857C112.382 280.587 115.422 284.083 118.711 287.455C121.461 290.273 124.251 293.068 127.007 295.884C127.475 296.362 127.857 296.89 128.278 297.396C128.168 297.484 128.061 297.575 127.952 297.665C126.37 296.777 124.718 295.965 123.227 294.98C121.71 293.979 120.358 292.804 118.923 291.717C118.225 291.188 117.382 290.519 116.534 290.886C115.499 291.334 114.271 291.795 114.254 293.021C114.235 294.446 114.07 295.875 114.305 297.302C114.753 300.017 115.446 302.729 116.023 305.442C116.204 306.29 116.342 307.138 116.498 307.985C114.847 306.777 114.181 305.352 113.599 303.9C111.208 297.921 110.031 291.888 109.609 285.835C109.404 282.862 109.384 279.9 109.279 276.931ZM248.603 285.488C248.726 285.767 248.864 285.966 248.893 286.164C249.707 291.72 249.723 297.194 248.826 302.565C248.633 303.727 247.656 304.417 246.578 305.122C244.605 300.912 245.827 289.198 248.603 285.488ZM258.641 299.623C260.491 294.967 267.343 288.486 271.356 287.541C268.526 292.71 264.217 296.602 258.641 299.623ZM255.739 281.314C255.823 281.501 255.954 281.658 255.955 281.802C255.939 285.642 255.941 289.485 255.87 293.318C255.851 294.337 254.219 296.465 253.229 297.064C252.566 292.728 253.99 283.707 255.739 281.314ZM241.722 309.233C240.046 304.893 239.55 295.126 241.067 292.701C241.271 294.303 241.463 295.622 241.603 296.939C241.971 300.376 242.329 303.813 242.667 307.25C242.745 308.043 243.077 308.976 241.722 309.233ZM247.179 312.026C249.12 310.361 260.465 306.95 263.032 307.228C258.37 309.903 253.236 311.51 247.179 312.026ZM268.161 299.43C266.2 302.012 258.783 305.254 253.987 305.636C258.382 303.31 262.844 301.071 268.161 299.43Z" fill="#0C0C0C" fill-opacity="0.2"/>
<defs>
<clipPath id="clip0_1434_114522">
<rect width="100" height="100" fill="white" transform="translate(137.5 187)"/>
</clipPath>
</defs>
</svg>
