<svg width="375" height="474" viewBox="0 0 375 474" fill="none" xmlns="http://www.w3.org/2000/svg">
<g clip-path="url(#clip0_1434_114574)">
<path d="M208.333 272.042L214.208 266.167L199.999 251.958L194.124 257.833L208.333 272.042ZM168.749 220.333H183.333V243.625L160.791 266.167L166.666 272.042L191.666 247.042V220.333H206.249L187.499 201.583L168.749 220.333Z" fill="#212121"/>
</g>
<path fill-rule="evenodd" clip-rule="evenodd" d="M256.604 181.872C254.992 180.547 253.726 179.436 252.376 178.407C248.014 175.08 243.306 172.165 238.344 169.575C233.394 166.992 228.434 164.434 223.114 162.487C207.743 156.862 192.078 154.495 176.089 155.406C167.494 155.896 159.706 158.143 152.407 161.467C148.291 163.34 144.445 165.536 140.849 168.021C140.192 168.474 139.527 168.681 138.633 168.693C131.136 168.8 124.563 170.824 118.73 174.329C118.127 174.691 117.572 175.117 117.062 175.566C115.226 177.19 115.201 177.828 116.805 179.79C115.569 180.733 114.284 181.629 113.12 182.63C112.437 183.218 111.863 183.927 111.387 184.658C110.323 186.302 111.263 187.642 113.619 187.928C113.865 187.958 114.114 187.948 114.737 187.968C114.178 188.648 113.75 189.117 113.386 189.623C112.092 191.415 110.748 193.182 109.576 195.038C109.093 195.803 108.821 196.745 108.762 197.646C108.64 199.552 110.525 200.818 112.518 200.091C114.159 199.49 115.618 198.571 117.1 197.724C118.012 197.202 118.814 196.552 119.802 195.864C119.831 198.139 118.581 200.232 120.262 202.514C122.553 201.98 122.435 200.094 123.485 198.659C123.574 199.292 123.663 199.697 123.681 200.099C123.736 201.364 123.723 202.628 123.819 203.894C123.885 204.772 124.026 205.662 124.249 206.533C124.503 207.52 125.127 208.339 126.387 208.614C127.685 208.897 128.537 208.361 128.982 207.473C129.741 205.967 130.384 204.41 131.05 202.864C131.261 202.37 131.39 201.842 131.552 201.348C131.776 201.373 131.926 201.351 132.022 201.405C134.516 202.803 135.606 202.684 136.746 200.586C137.549 199.106 138.05 197.487 138.654 195.919C138.847 195.417 138.941 194.88 139.076 194.374C139.272 194.389 139.419 194.362 139.515 194.414C142.123 195.834 143.351 195.616 144.494 193.389C145.586 191.264 145.785 188.918 145.772 186.547C145.747 182.083 145.082 177.623 144.013 173.17C143.922 172.79 143.848 172.408 143.726 171.829C146.115 170.434 148.498 168.944 151.001 167.602C155.838 165.012 161.026 162.956 166.604 161.55C173.873 159.717 181.492 159.441 189.25 159.81C200.458 160.342 211.363 162.647 221.99 166.52C227.614 168.57 232.876 171.285 238.052 174.118C241.117 175.794 244.032 177.691 247.002 179.505C247.416 179.757 247.755 180.101 248.458 180.669C247.2 180.372 246.404 180.12 245.594 180.004C243.43 179.697 242.001 180.917 242.722 182.701C243.338 184.226 244.248 185.753 245.364 187.09C247.712 189.906 250.268 192.607 252.762 195.339C256.432 199.357 259.779 203.535 262.552 208.007C263.201 209.051 263.829 210.108 264.573 211.108C265.375 212.185 266.573 212.361 267.44 211.451C268.083 210.778 268.664 209.94 268.84 209.077C269.242 207.118 269.53 205.114 269.599 203.1C269.859 195.408 269.193 187.705 266.829 180.022C266.041 177.465 265.189 174.917 263.591 172.543C262.631 171.116 261.251 170.164 259.517 169.574C257.682 168.949 256.219 169.305 255.542 170.734C255.138 171.586 254.921 172.614 255.041 173.559C255.315 175.704 255.854 177.848 256.278 179.991C256.38 180.512 256.459 181.033 256.604 181.872ZM265.558 204.396C265.386 204.424 265.215 204.451 265.046 204.479C262.685 200.805 259.87 197.373 256.818 194.068C254.266 191.305 251.676 188.567 249.118 185.806C248.683 185.338 248.331 184.818 247.942 184.322C248.047 184.232 248.15 184.139 248.254 184.048C249.734 184.908 251.28 185.69 252.673 186.647C254.089 187.62 255.347 188.769 256.686 189.828C257.336 190.344 258.122 190.996 258.928 190.618C259.913 190.156 261.079 189.677 261.114 188.457C261.155 187.038 261.334 185.613 261.135 184.196C260.755 181.5 260.143 178.811 259.641 176.119C259.484 175.278 259.367 174.436 259.233 173.595C260.773 174.772 261.379 176.179 261.905 177.616C264.069 183.531 265.085 189.518 265.388 195.537C265.533 198.494 265.505 201.443 265.558 204.396ZM134.132 198.066C134.02 197.791 133.894 197.594 133.869 197.398C133.189 191.879 133.261 186.43 134.193 181.069C134.394 179.909 135.327 179.206 136.356 178.488C138.152 182.648 136.812 194.328 134.132 198.066ZM124.878 184.151C123.057 188.816 116.485 195.376 112.68 196.379C115.434 191.189 119.565 187.246 124.878 184.151ZM127.329 202.333C127.252 202.148 127.13 201.994 127.132 201.851C127.208 198.028 127.267 194.202 127.395 190.385C127.429 189.37 129.003 187.227 129.948 186.615C130.505 190.921 129.017 199.923 127.329 202.333ZM141.007 174.319C142.52 178.613 142.834 188.329 141.364 190.766C141.196 189.175 141.036 187.865 140.924 186.556C140.631 183.14 140.348 179.724 140.083 176.308C140.022 175.52 139.723 174.596 141.007 174.319ZM135.898 171.624C134.039 173.313 123.272 176.886 120.853 176.649C125.297 173.914 130.171 172.233 135.898 171.624ZM115.886 184.494C117.779 181.892 124.833 178.548 129.368 178.093C125.181 180.477 120.933 182.776 115.886 184.494Z" fill="#0C0C0C" fill-opacity="0.2"/>
<path fill-rule="evenodd" clip-rule="evenodd" d="M119.144 309.712C120.873 311.07 122.233 312.209 123.681 313.265C128.358 316.68 133.393 319.688 138.694 322.373C143.981 325.051 149.278 327.704 154.946 329.749C171.323 335.658 187.957 338.298 204.879 337.65C213.975 337.301 222.187 335.173 229.863 331.955C234.191 330.142 238.228 328 241.995 325.564C242.684 325.12 243.384 324.923 244.331 324.925C252.271 324.943 259.2 323.02 265.319 319.595C265.952 319.242 266.532 318.823 267.065 318.38C268.983 316.779 268.998 316.139 267.266 314.14C268.56 313.214 269.906 312.335 271.122 311.349C271.836 310.768 272.432 310.067 272.923 309.34C274.023 307.705 273.004 306.343 270.504 306.016C270.243 305.982 269.979 305.989 269.319 305.958C269.9 305.284 270.345 304.82 270.722 304.318C272.063 302.539 273.456 300.786 274.667 298.941C275.165 298.18 275.438 297.238 275.485 296.334C275.582 294.42 273.563 293.117 271.465 293.815C269.737 294.391 268.207 295.29 266.651 296.116C265.694 296.625 264.856 297.265 263.821 297.939C263.752 295.653 265.041 293.571 263.221 291.25C260.804 291.749 260.96 293.646 259.872 295.07C259.767 294.432 259.666 294.024 259.64 293.62C259.56 292.348 259.553 291.079 259.429 289.804C259.345 288.921 259.181 288.025 258.93 287.145C258.644 286.15 257.969 285.317 256.63 285.02C255.25 284.713 254.357 285.237 253.901 286.122C253.121 287.623 252.467 289.177 251.788 290.718C251.572 291.212 251.445 291.74 251.281 292.233C251.044 292.205 250.885 292.224 250.782 292.169C248.117 290.722 246.965 290.823 245.792 292.912C244.966 294.386 244.463 296.004 243.849 297.57C243.654 298.071 243.564 298.608 243.429 299.115C243.221 299.096 243.065 299.121 242.963 299.067C240.177 297.597 238.88 297.796 237.706 300.014C236.585 302.131 236.414 304.485 236.468 306.868C236.57 311.353 237.349 315.845 238.557 320.337C238.66 320.72 238.744 321.106 238.883 321.69C236.376 323.051 233.877 324.508 231.249 325.814C226.168 328.336 220.707 330.315 214.823 331.635C207.154 333.356 199.087 333.505 190.863 333.005C178.981 332.283 167.391 329.785 156.068 325.716C150.077 323.562 144.457 320.747 138.926 317.814C135.652 316.078 132.532 314.123 129.355 312.251C128.911 311.991 128.547 311.64 127.792 311.057C129.13 311.376 129.978 311.644 130.838 311.773C133.135 312.118 134.628 310.916 133.834 309.111C133.156 307.568 132.167 306.02 130.962 304.657C128.427 301.789 125.674 299.032 122.986 296.245C119.031 292.147 115.414 287.893 112.402 283.354C111.697 282.294 111.014 281.221 110.209 280.205C109.341 279.109 108.069 278.912 107.166 279.812C106.497 280.477 105.895 281.31 105.723 282.174C105.33 284.135 105.059 286.144 105.02 288.166C104.874 295.89 105.71 303.642 108.344 311.4C109.221 313.983 110.167 316.557 111.899 318.97C112.941 320.419 114.419 321.398 116.265 322.02C118.22 322.679 119.764 322.346 120.456 320.921C120.87 320.072 121.082 319.043 120.939 318.091C120.613 315.931 120.006 313.768 119.521 311.608C119.403 311.083 119.312 310.558 119.144 309.712ZM109.279 286.931C109.46 286.906 109.641 286.882 109.82 286.857C112.382 290.587 115.422 294.083 118.711 297.455C121.461 300.273 124.251 303.068 127.007 305.884C127.475 306.362 127.857 306.89 128.278 307.396C128.168 307.484 128.061 307.575 127.952 307.665C126.37 306.777 124.718 305.965 123.227 304.98C121.71 303.979 120.358 302.804 118.923 301.717C118.225 301.188 117.382 300.519 116.534 300.886C115.499 301.334 114.271 301.795 114.254 303.021C114.235 304.446 114.07 305.875 114.305 307.302C114.753 310.017 115.446 312.729 116.023 315.442C116.204 316.29 116.342 317.138 116.498 317.985C114.847 316.777 114.181 315.352 113.599 313.9C111.208 307.921 110.031 301.888 109.609 295.835C109.404 292.862 109.384 289.9 109.279 286.931ZM248.603 295.488C248.726 295.767 248.864 295.966 248.893 296.164C249.707 301.72 249.723 307.194 248.826 312.565C248.633 313.727 247.656 314.417 246.578 315.122C244.605 310.912 245.827 299.198 248.603 295.488ZM258.641 309.623C260.491 304.967 267.343 298.486 271.356 297.541C268.526 302.71 264.217 306.602 258.641 309.623ZM255.739 291.314C255.823 291.501 255.954 291.658 255.955 291.802C255.939 295.642 255.941 299.485 255.87 303.318C255.851 304.337 254.219 306.465 253.229 307.064C252.566 302.728 253.99 293.707 255.739 291.314ZM241.722 319.233C240.046 314.893 239.55 305.126 241.067 302.701C241.271 304.303 241.463 305.622 241.603 306.939C241.971 310.376 242.329 313.813 242.667 317.25C242.745 318.043 243.077 318.976 241.722 319.233ZM247.179 322.026C249.12 320.361 260.465 316.95 263.032 317.228C258.37 319.903 253.236 321.51 247.179 322.026ZM268.161 309.43C266.2 312.012 258.783 315.254 253.987 315.636C258.382 313.31 262.844 311.071 268.161 309.43Z" fill="#0C0C0C" fill-opacity="0.2"/>
<defs>
<clipPath id="clip0_1434_114574">
<rect width="100" height="100" fill="white" transform="translate(137.5 187)"/>
</clipPath>
</defs>
</svg>
