<svg width="64" height="64" viewBox="0 0 64 64" fill="none" xmlns="http://www.w3.org/2000/svg">
<g filter="url(#filter0_d_1401_77078)">
<circle cx="32" cy="30" r="27.5" fill="#0C0C0C" stroke="#FDFDFD"/>
<path d="M41.3306 26.008V26.488C40.8186 26.552 40.4266 26.688 40.1546 26.896C39.8986 27.088 39.7306 27.4 39.6506 27.832C39.5706 28.264 39.5306 28.872 39.5306 29.656V36.016C39.5306 37.056 39.4586 38.008 39.3146 38.872C39.1706 39.736 38.9146 40.48 38.5466 41.104C38.1306 41.792 37.5226 42.336 36.7226 42.736C35.9226 43.136 34.9066 43.336 33.6746 43.336C32.9386 43.336 32.1866 43.248 31.4186 43.072C30.6506 42.912 29.9626 42.6 29.3546 42.136C28.8426 41.704 28.4506 41.216 28.1786 40.672C27.9066 40.128 27.7226 39.488 27.6266 38.752C27.5306 38 27.4826 37.112 27.4826 36.088V28.552C27.4826 27.96 27.4346 27.528 27.3386 27.256C27.2586 26.968 27.0906 26.776 26.8346 26.68C26.5786 26.568 26.1946 26.504 25.6826 26.488V26.008C26.0826 26.024 26.6186 26.04 27.2906 26.056C27.9786 26.072 28.6906 26.08 29.4266 26.08C30.1626 26.08 30.8666 26.072 31.5386 26.056C32.2266 26.04 32.7946 26.024 33.2426 26.008V26.488C32.6986 26.504 32.2826 26.568 31.9946 26.68C31.7226 26.776 31.5386 26.968 31.4426 27.256C31.3466 27.528 31.2986 27.96 31.2986 28.552V37.6C31.2986 38.4 31.3466 39.112 31.4426 39.736C31.5546 40.344 31.7306 40.856 31.9706 41.272C32.2266 41.672 32.5706 41.976 33.0026 42.184C33.4346 42.392 33.9706 42.496 34.6106 42.496C35.7306 42.496 36.6026 42.232 37.2266 41.704C37.8666 41.176 38.3146 40.448 38.5706 39.52C38.8426 38.576 38.9786 37.496 38.9786 36.28V29.944C38.9786 29.064 38.9226 28.392 38.8106 27.928C38.6986 27.448 38.4746 27.104 38.1386 26.896C37.8186 26.688 37.3226 26.552 36.6506 26.488V26.008C36.9546 26.024 37.3546 26.04 37.8506 26.056C38.3466 26.072 38.8106 26.08 39.2426 26.08C39.6266 26.08 40.0026 26.072 40.3706 26.056C40.7546 26.04 41.0746 26.024 41.3306 26.008Z" fill="#FDFDFD"/>
<path d="M24.625 26.2922H34.375C34.4737 26.2918 34.5705 26.2646 34.6549 26.2134C34.7392 26.1622 34.8081 26.0889 34.8539 26.0015C34.8998 25.9141 34.9209 25.8158 34.9151 25.7173C34.9092 25.6187 34.8766 25.5237 34.8208 25.4423L29.9458 18.4006C29.7437 18.1087 29.2573 18.1087 29.0547 18.4006L24.1797 25.4423C24.1233 25.5235 24.0902 25.6186 24.0841 25.7173C24.0779 25.816 24.0989 25.9145 24.1448 26.0021C24.1907 26.0897 24.2597 26.1631 24.3444 26.2142C24.429 26.2654 24.5261 26.2923 24.625 26.2922Z" fill="#FDFDFD"/>
</g>
<defs>
<filter id="filter0_d_1401_77078" x="0" y="0" width="64" height="64" filterUnits="userSpaceOnUse" color-interpolation-filters="sRGB">
<feFlood flood-opacity="0" result="BackgroundImageFix"/>
<feColorMatrix in="SourceAlpha" type="matrix" values="0 0 0 0 0 0 0 0 0 0 0 0 0 0 0 0 0 0 127 0" result="hardAlpha"/>
<feOffset dy="2"/>
<feGaussianBlur stdDeviation="2"/>
<feComposite in2="hardAlpha" operator="out"/>
<feColorMatrix type="matrix" values="0 0 0 0 0 0 0 0 0 0 0 0 0 0 0 0 0 0 0.2 0"/>
<feBlend mode="normal" in2="BackgroundImageFix" result="effect1_dropShadow_1401_77078"/>
<feBlend mode="normal" in="SourceGraphic" in2="effect1_dropShadow_1401_77078" result="shape"/>
</filter>
</defs>
</svg>
