<svg width="16" height="16" viewBox="0 0 16 16" fill="none" xmlns="http://www.w3.org/2000/svg">
<g clip-path="url(#clip0_2642_5837)">
<path d="M7.99992 1.33301C5.41992 1.33301 3.33325 3.41967 3.33325 5.99967C3.33325 7.15967 3.66659 8.24634 4.27325 9.22634C4.90659 10.253 5.73992 11.133 6.37992 12.1597C6.69325 12.6597 6.91992 13.1263 7.15992 13.6663C7.33325 14.033 7.47325 14.6663 7.99992 14.6663C8.52659 14.6663 8.66659 14.033 8.83325 13.6663C9.07992 13.1263 9.29992 12.6597 9.61325 12.1597C10.2533 11.1397 11.0866 10.2597 11.7199 9.22634C12.3333 8.24634 12.6666 7.15967 12.6666 5.99967C12.6666 3.41967 10.5799 1.33301 7.99992 1.33301ZM7.99992 7.83301C7.07992 7.83301 6.33325 7.08634 6.33325 6.16634C6.33325 5.24634 7.07992 4.49967 7.99992 4.49967C8.91992 4.49967 9.66659 5.24634 9.66659 6.16634C9.66659 7.08634 8.91992 7.83301 7.99992 7.83301Z" fill="#757575"/>
</g>
<defs>
<clipPath id="clip0_2642_5837">
<rect width="16" height="16" fill="white"/>
</clipPath>
</defs>
</svg>
