<svg width="64" height="64" viewBox="0 0 64 64" fill="none" xmlns="http://www.w3.org/2000/svg">
<rect width="64" height="64" rx="16" fill="#212121"/>
<g clip-path="url(#clip0_1160_40535)">
<path d="M52 14H12C9.8 14 8 15.8 8 18V46C8 48.2 9.8 50 12 50H52C54.2 50 55.98 48.2 55.98 46L56 18C56 15.8 54.2 14 52 14ZM24 20C27.32 20 30 22.68 30 26C30 29.32 27.32 32 24 32C20.68 32 18 29.32 18 26C18 22.68 20.68 20 24 20ZM36 44H12V42C12 38 20 35.8 24 35.8C28 35.8 36 38 36 42V44ZM43.7 36H46.98L50 40L46.02 43.98C43.4 42.02 41.46 39.22 40.56 36C40.2 34.72 40 33.38 40 32C40 30.62 40.2 29.28 40.56 28C41.46 24.76 43.4 21.98 46.02 20.02L50 24L46.98 28H43.7C43.26 29.26 43 30.6 43 32C43 33.4 43.26 34.74 43.7 36Z" fill="#FDFDFD"/>
</g>
<defs>
<clipPath id="clip0_1160_40535">
<rect width="48" height="48" fill="white" transform="translate(8 8)"/>
</clipPath>
</defs>
</svg>
