<svg width="375" height="812" viewBox="0 0 375 812" fill="none" xmlns="http://www.w3.org/2000/svg">
<line x1="-851.116" y1="55.8369" x2="498.694" y2="55.8369" stroke="#F5F5F5" stroke-width="2"/>
<line x1="-851.116" y1="128.213" x2="498.694" y2="128.213" stroke="#F5F5F5" stroke-width="2"/>
<line x1="-851.116" y1="200.589" x2="498.694" y2="200.589" stroke="#F5F5F5" stroke-width="2"/>
<line x1="-851.116" y1="272.966" x2="498.694" y2="272.966" stroke="#F5F5F5" stroke-width="2"/>
<line x1="-851.116" y1="345.343" x2="498.694" y2="345.343" stroke="#F5F5F5" stroke-width="2"/>
<line x1="-851.116" y1="417.741" x2="498.694" y2="417.741" stroke="#F5F5F5" stroke-width="2"/>
<line x1="-851.116" y1="490.117" x2="498.694" y2="490.117" stroke="#F5F5F5" stroke-width="2"/>
<line x1="-851.116" y1="562.493" x2="498.694" y2="562.493" stroke="#F5F5F5" stroke-width="2"/>
<line x1="-851.116" y1="634.87" x2="498.694" y2="634.87" stroke="#F5F5F5" stroke-width="2"/>
<line x1="-851.116" y1="707.246" x2="498.694" y2="707.246" stroke="#F5F5F5" stroke-width="2"/>
<line x1="-851.116" y1="779.623" x2="498.694" y2="779.623" stroke="#F5F5F5" stroke-width="2"/>
<line x1="27.9329" y1="851.567" x2="27.9329" y2="-563" stroke="#F5F5F5" stroke-width="2"/>
<line x1="96.3096" y1="851.567" x2="96.3096" y2="-563" stroke="#F5F5F5" stroke-width="2"/>
<line x1="164.686" y1="851.567" x2="164.686" y2="-563" stroke="#F5F5F5" stroke-width="2"/>
<line x1="233.077" y1="851.567" x2="233.077" y2="-563" stroke="#F5F5F5" stroke-width="2"/>
<line x1="301.454" y1="851.567" x2="301.454" y2="-563" stroke="#F5F5F5" stroke-width="2"/>
<line x1="369.824" y1="851.567" x2="369.824" y2="-563" stroke="#F5F5F5" stroke-width="2"/>
</svg>
